<svg width="20" height="19" viewBox="0 0 20 19" fill="none" xmlns="http://www.w3.org/2000/svg">
<g filter="url(#filter0_d)">
<path d="M8.66207 15.7959L1.66207 9.49586C1.24064 9.11658 1 8.57625 1 8.00927V2C1 0.895432 1.89543 0 3 0H17C18.1046 0 19 0.895431 19 2V8.00927C19 8.57625 18.7594 9.11658 18.3379 9.49586L11.3379 15.7959C10.5773 16.4804 9.42268 16.4804 8.66207 15.7959Z" fill="white"/>
</g>
<path d="M8.66022 12.7912L3.66022 8.2799C3.23991 7.90067 3 7.36108 3 6.79498V4C3 2.89543 3.89543 2 5 2H15C16.1046 2 17 2.89543 17 4V6.79498C17 7.36108 16.7601 7.90067 16.3398 8.2799L11.3398 12.7912C10.5786 13.4779 9.42139 13.4779 8.66022 12.7912Z" fill="#A6B0C3"/>
<path d="M9.28728 9.27581L7.28728 7.24365C7.10318 7.05659 7 6.80466 7 6.54221V6C7 5.44771 7.44772 5 8 5H12C12.5523 5 13 5.44772 13 6V6.54221C13 6.80466 12.8968 7.05659 12.7127 7.24365L10.7127 9.27581C10.321 9.67389 9.67905 9.67389 9.28728 9.27581Z" fill="white"/>
<defs>
<filter id="filter0_d" x="0" y="0" width="20" height="18.3093" filterUnits="userSpaceOnUse" color-interpolation-filters="sRGB">
<feFlood flood-opacity="0" result="BackgroundImageFix"/>
<feColorMatrix in="SourceAlpha" type="matrix" values="0 0 0 0 0 0 0 0 0 0 0 0 0 0 0 0 0 0 127 0"/>
<feOffset dy="1"/>
<feGaussianBlur stdDeviation="0.5"/>
<feColorMatrix type="matrix" values="0 0 0 0 0.345098 0 0 0 0 0.4 0 0 0 0 0.494118 0 0 0 0.1 0"/>
<feBlend mode="normal" in2="BackgroundImageFix" result="effect1_dropShadow"/>
<feBlend mode="normal" in="SourceGraphic" in2="effect1_dropShadow" result="shape"/>
</filter>
</defs>
</svg>
